<?xml version="1.0" encoding="iso-8859-1"?>
<!-- Uploaded to: SVG Repo, www.svgrepo.com, Generator: SVG Repo Mixer Tools -->
<!DOCTYPE svg PUBLIC "-//W3C//DTD SVG 1.1//EN" "http://www.w3.org/Graphics/SVG/1.1/DTD/svg11.dtd">
<svg fill="#000000" version="1.1" id="Capa_1" xmlns="http://www.w3.org/2000/svg" xmlns:xlink="http://www.w3.org/1999/xlink" 
	 width="800px" height="800px" viewBox="0 0 592.901 592.9"
	 xml:space="preserve">
<g>
	<path d="M295.8,0C132.6,0,0,132.6,0,297.1C0,461.6,132.6,592.9,295.8,592.9s297.1-132.6,297.1-297.1C592.9,131.3,460.3,0,295.8,0z
		 M51,297.1C51,160.7,160.6,51,295.8,51c57.4,0,109.6,19.1,151.7,52.3L103.3,447.6C70.1,406.699,51,353.199,51,297.1z M295.8,541.9
		c-59.9,0-114.8-21.701-156.8-57.4L484.5,139c35.7,42.1,57.399,96.9,57.399,156.8C541.9,432.199,430.9,541.9,295.8,541.9z
		 M369.8,144.1l-86.7,86.7c-20.4-14-23-48.5-6.4-80.3c19.1-30.6,52.3-45.9,75.2-31.9C360.8,123.7,367.201,133.9,369.8,144.1z
		 M138,159.4c9.7-35.3,38.4-58.2,64.2-51.2c25.8,7.1,38.9,41.4,29.2,76.7c-9.7,35.3-38.4,58.2-64.2,51.2
		C141.4,229,128.3,194.7,138,159.4z M441.8,437.4c-34.4,12.6-69.7,2.4-78.9-22.701C353.701,389.6,374.1,359,408.5,346.4
		c34.399-12.6,69.7-2.4,78.899,22.699C496.6,394.199,476.201,424.801,441.8,437.4z M358.3,300.9l91.8-91.8
		c5.101,2.5,8.9,6.4,12.8,11.5c15.301,21.7,3.801,56.1-25.5,77.8C409.3,317.5,376.1,318.801,358.3,300.9z M332.8,327.699
		c20.4,47.201,14,103.301-23,142.801c-37,40.801-51,1.301-79-40.801L332.8,327.699z M256.3,258.9L153,362.1
		c-39.5-21.699-71.4-30.6-35.7-68.899C153,253.8,209.1,242.3,256.3,258.9z"/>
</g>
</svg>