<?xml version="1.0" encoding="utf-8"?>
<!-- Uploaded to: SVG Repo, www.svgrepo.com, Generator: SVG Repo Mixer Tools -->
<svg fill="#000000" height="800px" width="800px" version="1.1" id="Layer_1" xmlns="http://www.w3.org/2000/svg" xmlns:xlink="http://www.w3.org/1999/xlink" 
	 viewBox="0 0 236 256" xml:space="preserve">
<path d="M23.1,189.9H2.4v40.7c0,12.5,11.2,22.7,25,22.7h181c13.8,0,25-10.2,25-22.7v-40.7h-20.7v36.4c0,4.6-4.1,8.3-9.1,8.3H32.2
	c-5.1,0-9.1-3.7-9.1-8.3V189.9z M187.4,217.1V185L48.1,138.5v32.1L187.4,217.1z M80.3,138.5c-4.8-5.4-36.6-42.2-4.5-74.1
	c26.8-26.6,30.7-48.9,21.7-59.7c0,0,68.2,28,28.1,93c-6.9,11-24,24.1-15,50.9L80.3,138.5z M122.1,147.4c-1.5-5.5-8-17.3,11.9-40.9
	c10.7-12.6,14.7-31.2,15.6-38.3c0,0,35.3,20.2,0.2,69.8L122.1,147.4z M129.6,154.9l57.8-19.3v32.1l-9.8,3.2L129.6,154.9z M106,200.7
	l-57.8,19.3v-32.1l9.8-3.2L106,200.7z"/>
</svg>