<?xml version="1.0" encoding="iso-8859-1"?>
<!-- Uploaded to: SVG Repo, www.svgrepo.com, Generator: SVG Repo Mixer Tools -->
<svg fill="#000000" height="800px" width="800px" version="1.1" id="Layer_1" xmlns="http://www.w3.org/2000/svg" xmlns:xlink="http://www.w3.org/1999/xlink" 
	 viewBox="0 0 511.999 511.999" xml:space="preserve">
<g>
	<g>
		<g>
			<path d="M444.674,404.054l-23.582-129.55c-1.045-5.747-3.075-11.198-6.004-16.15c-8.763-14.934-24.322-24.002-41.622-24.259
				l-68.238-1.005l10.553-66.416c2.366-14.894-1.208-29.819-10.066-42.024c-3.024-4.165-6.548-7.831-10.46-10.964
				c5.63-1.509,10.994-4.046,15.852-7.571c10.423-7.565,17.276-18.735,19.297-31.452l2.59-16.295
				c4.168-26.254-13.799-51.006-40.051-55.179L276.65,0.6c-26.261-4.165-51.007,13.797-55.182,40.051l-2.589,16.292
				c-3.076,19.368,5.902,37.908,21.359,47.982c-4.703,1.767-9.204,4.164-13.381,7.196c-12.207,8.858-20.231,21.94-22.598,36.833
				l-18.446,116.075c-4.885,30.747,16.156,59.736,46.9,64.622c3.432,0.546,6.95,0.773,10.443,0.677l88.585,1.305l16.381,89.998
				c2.348,12.895,9.576,24.103,20.352,31.561c8.299,5.743,17.936,8.733,27.816,8.733c2.951,0,5.926-0.267,8.892-0.807
				c26.619-4.843,44.334-30.439,39.494-57.062C444.674,404.056,444.674,404.055,444.674,404.054z M253.536,62.447l2.589-16.289
				c1.135-7.146,7.859-12.037,15.018-10.902l16.292,2.59c7.146,1.136,12.036,7.873,10.902,15.017l-2.59,16.294
				c-0.55,3.46-2.414,6.5-5.251,8.559c-2.837,2.059-6.304,2.889-9.768,2.339l-16.292-2.589h0.001
				C257.291,76.332,252.401,69.593,253.536,62.447z M398.898,426.595c-3.671,0.67-7.383-0.132-10.455-2.256
				c-3.07-2.125-5.13-5.32-5.798-8.993L363.683,311.16c-1.501-8.245-8.623-14.279-17.004-14.403l-103.409-1.524
				c-0.085-0.001-0.172-0.001-0.259-0.001c-0.211,0-0.42,0.004-0.63,0.012c-1.4,0.049-2.801-0.034-4.159-0.249
				c-11.637-1.849-19.602-12.822-17.753-24.46l18.446-116.075c1.848-11.636,12.814-19.6,24.457-17.75
				c5.638,0.896,10.591,3.934,13.943,8.554c3.352,4.619,4.706,10.268,3.81,15.906l-13.731,86.416
				c-0.799,5.026,0.625,10.152,3.901,14.047c3.275,3.895,8.08,6.175,13.17,6.251l88.485,1.303c4.932,0.073,9.371,2.663,11.904,6.982
				c0.839,1.418,1.415,2.971,1.715,4.62l23.582,129.553C411.527,417.923,406.482,425.215,398.898,426.595z"/>
			<path d="M418.953,87.198c-8.335,4.941-11.088,15.703-6.147,24.04c2.391,4.034-0.054,13.482-2.417,22.62
				c-4.185,16.174-9.393,36.303,2.587,55.677c3.318,5.368,9.061,8.32,14.94,8.32c3.148,0,6.336-0.848,9.21-2.625
				c8.242-5.096,10.793-15.909,5.695-24.151c-3.826-6.187-1.971-14.869,1.538-28.433c3.771-14.575,8.464-32.713-1.369-49.301
				C438.053,85.011,427.294,82.256,418.953,87.198z"/>
			<path d="M500.535,142.646c3.771-14.575,8.463-32.712-1.367-49.3c-4.941-8.336-15.706-11.088-24.04-6.148
				c-8.337,4.941-11.089,15.703-6.149,24.039c2.392,4.034-0.053,13.483-2.417,22.62c-4.183,16.174-9.39,36.303,2.587,55.677
				c3.32,5.368,9.062,8.321,14.941,8.321c3.148,0,6.335-0.847,9.21-2.625c8.242-5.095,10.793-15.908,5.696-24.15
				C495.172,164.892,497.026,156.21,500.535,142.646z"/>
			<path d="M423.155,476.908H307.822V361.575c0-9.69-7.856-17.546-17.546-17.546H174.944V228.695c0-9.69-7.856-17.546-17.546-17.546
				H24.52c-9.69,0-17.546,7.856-17.546,17.546c0,9.69,7.856,17.546,17.546,17.546h115.333v115.334
				c0,9.69,7.856,17.546,17.546,17.546h115.333v115.333c0,9.69,7.856,17.546,17.546,17.546h132.879
				c9.69,0,17.546-7.856,17.546-17.546S432.845,476.908,423.155,476.908z"/>
		</g>
	</g>
</g>
</svg>