<?xml version="1.0" encoding="iso-8859-1"?>
<!-- Uploaded to: SVG Repo, www.svgrepo.com, Generator: SVG Repo Mixer Tools -->
<!DOCTYPE svg PUBLIC "-//W3C//DTD SVG 1.1//EN" "http://www.w3.org/Graphics/SVG/1.1/DTD/svg11.dtd">
<svg fill="#000000" height="800px" width="800px" version="1.1" id="Capa_1" xmlns="http://www.w3.org/2000/svg" xmlns:xlink="http://www.w3.org/1999/xlink" 
	 viewBox="0 0 206.699 206.699" xml:space="preserve">
<path d="M46.658,61.254c0-15.598,12.69-28.289,28.289-28.289c15.598,0,28.288,12.69,28.288,28.289s-12.69,28.288-28.288,28.288
	C59.349,89.542,46.658,76.852,46.658,61.254z M74.947,23.802c2.209,0,4-1.791,4-4V6.946c0-2.209-1.791-4-4-4s-4,1.791-4,4v12.856
	C70.947,22.011,72.738,23.802,74.947,23.802z M70.947,101.984v12.856c0,2.209,1.791,4,4,4s4-1.791,4-4v-12.856c0-2.209-1.791-4-4-4
	S70.947,99.775,70.947,101.984z M112.038,60.893c0,2.209,1.791,4,4,4h12.856c2.209,0,4-1.791,4-4s-1.791-4-4-4h-12.856
	C113.829,56.893,112.038,58.684,112.038,60.893z M21,64.893h12.856c2.209,0,4-1.791,4-4s-1.791-4-4-4H21c-2.209,0-4,1.791-4,4
	S18.791,64.893,21,64.893z M104.003,35.838c1.023,0,2.048-0.391,2.828-1.171l9.091-9.091c1.563-1.563,1.563-4.095,0-5.657
	c-1.561-1.562-4.096-1.562-5.656,0l-9.091,9.091c-1.563,1.563-1.563,4.095,0,5.657C101.955,35.447,102.98,35.838,104.003,35.838z
	 M43.064,87.12l-9.091,9.091c-1.563,1.563-1.563,4.095,0,5.657c0.78,0.781,1.805,1.171,2.828,1.171s2.048-0.391,2.828-1.171
	l9.091-9.091c1.563-1.563,1.563-4.095,0-5.657C47.159,85.559,44.624,85.559,43.064,87.12z M106.831,87.12
	c-1.561-1.562-4.096-1.562-5.656,0c-1.563,1.563-1.563,4.095,0,5.657l9.091,9.091c0.78,0.781,1.805,1.171,2.828,1.171
	s2.048-0.391,2.828-1.171c1.563-1.563,1.563-4.095,0-5.657L106.831,87.12z M43.064,34.666c0.78,0.781,1.805,1.171,2.828,1.171
	s2.048-0.391,2.828-1.171c1.563-1.563,1.563-4.095,0-5.657l-9.091-9.091c-1.561-1.562-4.096-1.562-5.656,0
	c-1.563,1.563-1.563,4.095,0,5.657L43.064,34.666z M206.142,108.714l-35.414,59.912c0.004,0.077,0.023,0.15,0.023,0.229v30.899
	c0,2.209-1.791,4-4,4h-16.222c-2.209,0-4-1.791-4-4v-19.051H51.525L17.1,203.106c-0.649,0.422-1.407,0.647-2.182,0.647H4
	c-1.76,0-3.312-1.15-3.826-2.833c-0.513-1.683,0.134-3.504,1.594-4.486l45.952-30.899c0.66-0.444,1.438-0.681,2.232-0.681h0.386
	h68.795v-17.359h-14.082c-2.209,0-4-1.791-4-4s1.791-4,4-4h73.603l20.601-34.852c1.123-1.901,3.577-2.534,5.479-1.408
	C206.636,104.359,207.266,106.812,206.142,108.714z M127.133,164.854h23.396h9.808h3.327l10.261-17.359h-46.792V164.854z"/>
</svg>