<?xml version="1.0" encoding="iso-8859-1"?>
<!-- Uploaded to: SVG Repo, www.svgrepo.com, Generator: SVG Repo Mixer Tools -->
<svg fill="#000000" height="800px" width="800px" version="1.1" id="Capa_1" xmlns="http://www.w3.org/2000/svg" xmlns:xlink="http://www.w3.org/1999/xlink" 
	 viewBox="0 0 466.006 466.006" xml:space="preserve">
<g>
	<path d="M397.758,68.247C353.749,24.24,295.235,0.003,232.997,0.003c-62.235,0-120.746,24.236-164.753,68.245
		C24.236,112.256,0,170.769,0,233.006c0,62.235,24.236,120.745,68.244,164.753s102.518,68.244,164.753,68.244
		c62.238,0,120.751-24.236,164.761-68.244c44.011-44.008,68.248-102.518,68.248-164.753
		C466.006,170.769,441.769,112.256,397.758,68.247z M232.997,450.003C113.345,450.003,16,352.658,16,233.006
		C16,113.35,113.345,16.003,232.997,16.003c119.66,0,217.009,97.347,217.009,217.003
		C450.006,352.658,352.657,450.003,232.997,450.003z"/>
	<path d="M295.905,351.92c1.594,1.545,3.697,2.396,5.923,2.396c2.227,0,4.33-0.851,5.924-2.396c0.039-0.038,0.078-0.076,0.116-0.115
		c1.587-1.603,2.461-3.729,2.461-5.989c0-2.193-0.835-4.278-2.351-5.87c-0.084-0.089-0.17-0.176-0.258-0.26
		c-1.595-1.529-3.688-2.371-5.893-2.371c-2.268,0-4.402,0.886-5.954,2.438c-1.642,1.609-2.546,3.763-2.546,6.063
		c0,2.275,0.884,4.412,2.488,6.018C295.845,351.863,295.875,351.892,295.905,351.92z"/>
	<path d="M335.268,313.656c-2.253,0-4.378,0.875-6.012,2.493c-1.605,1.604-2.489,3.738-2.489,6.007c0,2.26,0.874,4.387,2.461,5.989
		c0.033,0.033,0.067,0.067,0.102,0.101c1.595,1.555,3.704,2.41,5.938,2.41c2.233,0,4.343-0.855,5.938-2.41
		c0.034-0.033,0.068-0.067,0.103-0.102c1.587-1.604,2.461-3.729,2.461-5.988c0-2.191-0.835-4.275-2.351-5.869
		c-0.085-0.089-0.171-0.176-0.26-0.261C339.564,314.497,337.472,313.656,335.268,313.656z"/>
	<path d="M414.081,220.33c0.304,4.409,4.131,7.728,8.531,7.432c4.408-0.305,7.735-4.124,7.432-8.531
		c-3.435-49.812-25.456-96.108-62.009-130.36c-36.727-34.414-84.687-53.367-135.045-53.367c-108.9,0-197.497,88.6-197.497,197.503
		c0,108.9,88.597,197.497,197.497,197.497c45.694,0,90.254-15.966,125.471-44.955c3.411-2.809,3.9-7.85,1.093-11.261
		c-2.808-3.41-7.85-3.901-11.261-1.093c-32.361,26.639-73.31,41.309-115.303,41.309c-100.078,0-181.497-81.419-181.497-181.497
		c0-100.081,81.419-181.503,181.497-181.503C328.009,51.503,407.554,125.661,414.081,220.33z"/>
	<path d="M422.613,238.234c-4.419-0.289-8.228,3.024-8.531,7.432c-2.81,40.809-19.641,79.912-47.394,110.108
		c-2.989,3.253-2.776,8.313,0.478,11.304c1.536,1.412,3.477,2.109,5.411,2.109c2.16,0,4.314-0.87,5.893-2.587
		c30.2-32.859,48.517-75.418,51.575-119.835C430.347,242.357,427.02,238.537,422.613,238.234z"/>
	<path d="M232.998,156.993c-41.911,0-76.008,34.097-76.008,76.008c0,41.906,34.097,76,76.008,76c41.907,0,76-34.094,76-76
		C308.999,191.09,274.905,156.993,232.998,156.993z M232.998,293.001c-33.088,0-60.008-26.916-60.008-60
		c0-33.089,26.919-60.008,60.008-60.008c33.084,0,60,26.919,60,60.008C292.999,266.085,266.083,293.001,232.998,293.001z"/>
	<path d="M232.997,187.886c-24.875,0-45.113,20.237-45.113,45.113c0,4.418,3.582,8,8,8s8-3.582,8-8
		c0-16.053,13.06-29.113,29.113-29.113c4.418,0,8-3.582,8-8S237.415,187.886,232.997,187.886z"/>
</g>
</svg>