<?xml version="1.0" encoding="iso-8859-1"?>
<!-- Uploaded to: SVG Repo, www.svgrepo.com, Generator: SVG Repo Mixer Tools -->
<svg fill="#000000" height="800px" width="800px" version="1.1" id="Layer_1" xmlns="http://www.w3.org/2000/svg" xmlns:xlink="http://www.w3.org/1999/xlink" 
	 viewBox="0 0 299.195 299.195" xml:space="preserve">
<g>
	<g>
		<g>
			<circle cx="241.15" cy="149.629" r="5.85"/>
			<path d="M99.58,136.695L78.195,120.12c-0.13-0.065-0.26-0.195-0.39-0.26c-4.875-3.055-10.985-3.25-15.99-0.52
				c-4.875,2.73-7.8,7.67-7.8,13.39v33.93c0,5.525,2.99,10.66,7.865,13.325c2.21,1.235,4.68,1.82,7.085,1.82
				c2.73,0,5.46-0.78,7.93-2.275l0.065-0.065l22.295-14.82c0.065-0.065,0.195-0.13,0.26-0.195c4.485-3.445,7.085-8.515,7.085-13.91
				S104.065,140.075,99.58,136.695z M93.73,156.585l-22.1,14.69c-2.21,1.365-4.095,0.65-5.07,0.13
				c-1.755-0.975-2.795-2.73-2.795-4.745v-33.93c0-2.86,1.69-4.225,2.73-4.81c0.845-0.455,1.82-0.715,2.795-0.715
				c1.04,0,2.08,0.26,3.055,0.845L93.6,144.43c2.08,1.56,3.25,3.705,3.25,6.11C96.85,152.88,95.745,155.025,93.73,156.585z"/>
			<path d="M272.935,52H26.26C11.505,52,0,63.7,0,78.65v141.895c0,14.95,11.57,26.65,26.26,26.65h246.675
				c14.755,0,26.26-11.7,26.26-26.65V78.65C299.26,63.7,287.69,52,272.935,52z M161.59,61.75c-0.26,6.37-5.525,11.505-12.025,11.505
				s-11.635-5.07-11.96-11.505H161.59z M25.87,61.815c2.665,4.615,2.08,10.595-1.885,14.56c-3.835,3.835-9.685,4.55-14.235,2.08
				C9.88,69.225,16.9,62.01,25.87,61.815z M25.87,237.51c-8.97-0.26-15.99-7.475-16.12-16.64c4.55-2.47,10.4-1.755,14.235,2.08
				C27.95,226.915,28.535,232.895,25.87,237.51z M137.67,237.51c0.26-6.37,5.525-11.505,12.025-11.505s11.635,5.07,11.96,11.505
				H137.67z M273.39,237.445c-2.665-4.615-2.08-10.595,1.885-14.56c3.835-3.835,9.685-4.55,14.235-2.08
				C289.38,230.035,282.36,237.25,273.39,237.445z M289.51,210.405c-7.28-1.95-15.405-0.065-21.125,5.59
				c-5.785,5.785-7.605,14.105-5.525,21.45h-91.52c-0.26-11.765-9.945-21.255-21.775-21.255c-11.83,0-21.45,9.49-21.775,21.255
				H36.27c2.145-7.345,0.26-15.665-5.525-21.45c-5.72-5.72-13.845-7.54-21.125-5.59V88.855c1.885,0.52,3.77,0.78,5.72,0.78
				c5.59,0,11.18-2.145,15.405-6.37c5.785-5.785,7.605-14.105,5.525-21.45h91.52c0.26,11.765,9.945,21.255,21.775,21.255
				c11.83,0,21.45-9.49,21.775-21.255h91.52c-2.145,7.345-0.26,15.665,5.525,21.45c4.225,4.225,9.815,6.37,15.405,6.37
				c1.95,0,3.835-0.26,5.72-0.78V210.405z M275.275,76.31c-3.965-3.965-4.55-9.945-1.885-14.56c8.97,0.26,15.99,7.475,16.12,16.64
				C284.96,80.86,279.11,80.145,275.275,76.31z"/>
		</g>
	</g>
</g>
</svg>