<?xml version="1.0" encoding="iso-8859-1"?>
<!-- Uploaded to: SVG Repo, www.svgrepo.com, Generator: SVG Repo Mixer Tools -->
<svg fill="#000000" height="800px" width="800px" version="1.1" id="Layer_1" xmlns="http://www.w3.org/2000/svg" xmlns:xlink="http://www.w3.org/1999/xlink" 
	 viewBox="0 0 512 512" xml:space="preserve">
<g>
	<g>
		<path d="M503.83,0H8.17C3.658,0,0,3.657,0,8.17v495.66c0,4.513,3.658,8.17,8.17,8.17c15.363,0,23.444-7.185,29.939-12.958
			c5.766-5.127,9.933-8.829,19.082-8.829c9.15,0,13.316,3.703,19.082,8.829C82.769,504.815,90.849,512,106.213,512
			c15.36,0,23.444-7.184,29.938-12.958c5.767-5.125,9.935-8.829,19.083-8.829c9.148,0,13.315,3.704,19.083,8.829
			c6.495,5.774,14.577,12.958,29.938,12.958c4.512,0,8.17-3.657,8.17-8.17V125.625c13.578,5.054,28.258,7.822,43.574,7.822
			s29.997-2.768,43.574-7.822V503.83c0,4.513,3.658,8.17,8.17,8.17c15.363,0,23.444-7.185,29.939-12.958
			c5.766-5.127,9.933-8.829,19.082-8.829c9.149,0,13.316,3.703,19.082,8.829c6.495,5.773,14.576,12.958,29.939,12.958
			c15.36,0,23.444-7.184,29.938-12.958c5.767-5.125,9.935-8.829,19.083-8.829c9.148,0,13.315,3.704,19.083,8.829
			C480.387,504.816,488.469,512,503.83,512c4.512,0,8.17-3.657,8.17-8.17V8.17C512,3.657,508.342,0,503.83,0z M315.343,16.34
			C311.344,45.524,286.265,68.085,256,68.085s-55.344-22.561-59.343-51.745H315.343z M16.34,16.34h114.656
			c0.807,12.473,3.445,24.455,7.653,35.678c-7.708,10.118-19.558,16.067-32.437,16.067c-18.089,0-34.226-12.131-39.24-29.5
			c-1.252-4.335-5.78-6.831-10.116-5.584c-4.336,1.252-6.835,5.781-5.583,10.116c7.021,24.322,29.612,41.309,54.939,41.309
			c15.176,0,29.333-5.897,39.872-16.2c5.312,9.682,11.863,18.591,19.443,26.51c-16.393,14.47-37.161,22.371-59.315,22.371
			c-49.556,0-89.872-40.317-89.872-89.872V16.34z M196.085,494.356c-4.146-1.512-7.197-4.223-10.913-7.525
			c-5.232-4.651-11.5-10.211-21.768-12.2V148.446c0-4.513-3.658-8.17-8.17-8.17s-8.17,3.657-8.17,8.17V474.63
			c-10.266,1.989-16.536,7.549-21.768,12.2c-5.768,5.125-9.936,8.829-19.083,8.829c-9.15,0-13.316-3.703-19.082-8.829
			c-5.231-4.65-11.5-10.211-21.769-12.2V148.446c0-4.513-3.658-8.17-8.17-8.17c-4.512,0-8.17,3.657-8.17,8.17V474.63
			c-10.268,1.989-16.538,7.549-21.769,12.2c-3.715,3.302-6.765,6.014-10.912,7.525V83.775c18.828,29.82,52.074,49.672,89.872,49.672
			c26.781,0,51.862-9.751,71.433-27.606c5.754,4.625,11.92,8.757,18.44,12.324V494.356z M256,117.106
			c-57.319,0-104.438-44.499-108.63-100.766h32.818c4.091,38.218,36.525,68.085,75.812,68.085c39.287,0,71.721-29.867,75.812-68.085
			h32.818C360.438,72.607,313.319,117.106,256,117.106z M495.66,494.356c-4.146-1.512-7.197-4.223-10.913-7.525
			c-5.232-4.651-11.5-10.211-21.768-12.2V148.446c0-4.513-3.658-8.17-8.17-8.17c-4.512,0-8.17,3.657-8.17,8.17V474.63
			c-10.266,1.989-16.536,7.549-21.768,12.2c-5.768,5.125-9.936,8.829-19.083,8.829c-9.15,0-13.316-3.703-19.082-8.829
			c-5.231-4.65-11.5-10.211-21.769-12.2V148.446c0-4.513-3.658-8.17-8.17-8.17c-4.512,0-8.17,3.657-8.17,8.17V474.63
			c-10.268,1.989-16.538,7.549-21.769,12.2c-3.715,3.302-6.765,6.014-10.912,7.525V118.164c6.52-3.565,12.686-7.699,18.44-12.324
			c19.57,17.855,44.652,27.606,71.433,27.606c37.799,0,71.044-19.851,89.872-49.672V494.356z M495.66,27.234
			c0,49.555-40.316,89.872-89.872,89.872c-22.153,0-42.922-7.901-59.315-22.371c7.58-7.919,14.131-16.827,19.443-26.51
			c10.539,10.303,24.696,16.2,39.872,16.2c25.327,0,47.918-16.986,54.94-41.309c1.252-4.335-1.248-8.864-5.583-10.116
			c-4.337-1.248-8.864,1.248-10.116,5.584c-5.015,17.369-21.152,29.5-39.241,29.5c-12.878,0-24.729-5.949-32.437-16.067
			c4.207-11.223,6.846-23.204,7.653-35.678H495.66V27.234z"/>
	</g>
</g>
</svg>