<?xml version="1.0" encoding="iso-8859-1"?>
<!-- Uploaded to: SVG Repo, www.svgrepo.com, Generator: SVG Repo Mixer Tools -->
<!DOCTYPE svg PUBLIC "-//W3C//DTD SVG 1.1//EN" "http://www.w3.org/Graphics/SVG/1.1/DTD/svg11.dtd">
<svg fill="#000000" version="1.1" id="Capa_1" xmlns="http://www.w3.org/2000/svg" xmlns:xlink="http://www.w3.org/1999/xlink" 
	 width="800px" height="800px" viewBox="0 0 185.582 185.583"
	 xml:space="preserve">
<g>
	<g>
		<path d="M83.414,35.095l-0.565-0.364l-0.656-0.181c-0.459-0.128-11.336-3.165-28.799-3.165c-17.456,0-28.336,3.037-28.803,3.165
			l-0.65,0.181l-0.579,0.364c-3.479,2.23-6,6.845-6,10.982v130.286c0,5.089,4.13,9.22,9.223,9.22h53.612
			c5.094,0,9.224-4.131,9.224-9.22V46.077C89.425,41.94,86.899,37.33,83.414,35.095z M84.809,176.363
			c0,2.101-1.436,3.797-3.357,4.355V83.227c0-0.845-0.695-2.246-1.417-2.993C77.187,79.538,67.472,77.5,53.393,77.5
			c-14.082,0-23.793,2.038-26.646,2.734c-0.716,0.747-1.412,2.147-1.412,2.993v97.492c-1.921-0.559-3.367-2.255-3.367-4.355V46.077
			c0-2.544,1.748-5.726,3.885-7.1c0,0,10.522-2.993,27.532-2.993c17.019,0,27.536,2.993,27.536,2.993
			c2.137,1.368,3.878,4.55,3.878,7.1v130.286H84.809z"/>
		<rect x="31.348" width="44.096" height="26.807"/>
		<path d="M139.754,50.184h19.245c5.066,0,9.222-1.097,9.222-2.454c0-1.357-4.155-2.454-9.222-2.454h-17.406
			c2.643-4.829,7.047-8.042,12.023-8.042c8.025,0,14.597-1.368,14.597-3.042c0-1.669-8.307-3.042-18.444-3.042h-21.533
			c-10.134,0-18.444,8.304-18.444,18.451v117.322c0,10.141,8.311,18.447,18.444,18.447h21.533c10.138,0,18.444-1.368,18.444-3.043
			c0-1.684-6.576-3.054-14.597-3.054c-4.981,0-9.391-3.185-12.023-8.032h17.406c5.066,0,9.222-1.094,9.222-2.451
			c0-1.346-4.155-2.452-9.222-2.452h-19.245c-0.443-1.751-0.748-3.59-0.748-5.51v-1.702h19.983c5.065,0,9.224-1.1,9.224-2.452
			c0-1.346-4.147-2.451-9.224-2.451h-19.983v-7.2h19.983c5.065,0,9.224-1.101,9.224-2.452c0-1.357-4.147-2.451-9.224-2.451h-19.983
			v-7.207h19.983c5.065,0,9.224-1.1,9.224-2.457c0-1.356-4.147-2.451-9.224-2.451h-19.983v-7.201h19.983
			c5.065,0,9.224-1.094,9.224-2.451c0-1.346-4.147-2.451-9.224-2.451h-19.983v-7.201h19.983c5.065,0,9.224-1.095,9.224-2.451
			c0-1.357-4.147-2.458-9.224-2.458h-19.983v-7.206h19.983c5.065,0,9.224-1.093,9.224-2.451c0-1.357-4.147-2.451-9.224-2.451
			h-19.983v-7.209h19.983c5.065,0,9.224-1.095,9.224-2.45c0-1.356-4.147-2.455-9.224-2.455h-19.983v-7.201h19.983
			c5.065,0,9.224-1.097,9.224-2.454c0-1.354-4.147-2.449-9.224-2.449h-19.983v-7.212h19.983c5.065,0,9.224-1.097,9.224-2.454
			c0-1.354-4.147-2.449-9.224-2.449h-19.983v-1.653C139.006,53.771,139.311,51.944,139.754,50.184z"/>
	</g>
</g>
</svg>