<?xml version="1.0" encoding="iso-8859-1"?>
<!-- Uploaded to: SVG Repo, www.svgrepo.com, Generator: SVG Repo Mixer Tools -->
<svg fill="#000000" height="800px" width="800px" version="1.1" id="Layer_1" xmlns="http://www.w3.org/2000/svg" xmlns:xlink="http://www.w3.org/1999/xlink" 
	 viewBox="0 0 511.999 511.999" xml:space="preserve">
<g>
	<g>
		<path d="M499.713,13.761c-33.519,0-65.987,9.809-93.895,28.368l-40.931,27.217c-6.419-2.409-15.813-6.323-27.095-11.021
			C290.972,38.82,212.641,6.191,165.765,6.135c-0.038-0.001-0.076-0.001-0.099-0.002l-6.75-0.055c-2.406,0-4.926,0.055-7.437,0.162
			l-0.407,0.015c-2.307,0.102-4.733,0.262-7.207,0.476c-0.005,0-0.125,0.01-0.13,0.01l-0.401,0.032
			c-2.247,0.2-4.603,0.46-7.063,0.779l-0.547,0.07c-2.237,0.297-4.551,0.655-6.849,1.057l-0.639,0.111
			c-2.239,0.401-4.523,0.856-6.784,1.355l-0.532,0.116c-2.262,0.505-4.544,1.065-6.758,1.657l-0.399,0.108
			c-2.298,0.619-4.586,1.289-6.803,1.987v0.001l-0.174,0.055C42.989,34.247,0.076,88.985,0,150.295v0.333
			c0.047,37.739,16.351,72.979,43.754,99.212l87.497,247.885c1.734,4.912,6.377,8.198,11.587,8.198h57.745h18.009h54.651
			c24.805,0,44.984-20.18,44.984-44.984v-80.821c0-20.122,16.37-36.492,36.492-36.492c20.122,0,36.492,16.37,36.492,36.492v23.767
			c0,6.785,5.501,12.287,12.287,12.287s12.287-5.502,12.287-12.287v-23.767c0-33.671-27.394-61.066-61.066-61.066
			s-61.066,27.395-61.066,61.066v80.821c0,11.254-9.156,20.41-20.41,20.41h-38.073l11.299-37.159
			c9.296-30.544,1.638-64.12-19.988-87.625c-2.154-2.339-4.141-4.851-5.938-7.489c-0.641-0.941-1.262-1.898-1.853-2.871
			c-0.001-0.001-0.003-0.004-0.004-0.006c-6.288-10.338-9.613-22.194-9.613-34.288c0-5.869,0.781-11.701,2.326-17.342l1.924-7.051
			c42.391-10.75,91.324-31.124,124.469-44.931c11.282-4.7,20.676-8.612,27.095-11.021l40.931,27.218
			c27.91,18.558,60.379,28.368,93.895,28.368c6.786,0,12.287-5.502,12.287-12.287V26.048C512,19.262,506.499,13.761,499.713,13.761z
			 M209.484,481.347h-8.902h-49.052L78.719,275.069c4.149,2.208,8.441,4.235,12.841,6.109c0.611,0.26,1.223,0.518,1.836,0.772
			c0.806,0.332,1.611,0.667,2.424,0.988c1.462,0.579,2.935,1.132,4.415,1.669c0.477,0.173,0.957,0.342,1.438,0.51
			c1.702,0.601,3.411,1.183,5.133,1.728c0.018,0.006,0.074,0.025,0.114,0.037l0.039,0.012c0.607,0.192,1.231,0.374,1.847,0.56
			c1.645,0.498,3.301,0.98,4.958,1.428c0.01,0.002,0.133,0.036,0.143,0.038l0.24,0.068c0.056,0.015,0.115,0.027,0.172,0.042
			c2.17,0.577,4.388,1.124,6.637,1.628l0.494,0.108c2.278,0.501,4.563,0.958,6.787,1.355l0.612,0.107
			c2.295,0.402,4.608,0.758,6.866,1.06l0.612,0.077c2.391,0.312,4.75,0.571,7.026,0.774l0.273,0.021l0.248,0.021
			c2.518,0.215,4.873,0.37,7.209,0.473l0.344,0.013c0.982,0.042,1.956,0.069,2.929,0.095c1.554,0.042,3.089,0.069,4.627,0.069
			l6.699-0.057c0.012,0,0.025-0.001,0.037-0.001h0.048c0.77-0.001,1.572-0.034,2.359-0.052c5.626-0.126,11.697-0.647,18.354-1.63
			c-1.315,6.17-1.978,12.479-1.978,18.816c0,12.803,2.725,25.408,7.926,37.016c-13.968,12.239-22.303,30.145-22.303,49
			c0,28.991,19.208,53.892,45.835,62.134L209.484,481.347z M209.836,374.819c0.213,0.247,0.415,0.499,0.623,0.748
			c0.254,0.305,0.512,0.606,0.759,0.913c0.215,0.268,0.421,0.542,0.632,0.812c0.231,0.296,0.466,0.589,0.691,0.888
			c0.209,0.278,0.407,0.56,0.611,0.84c0.218,0.3,0.44,0.596,0.651,0.898c0.197,0.281,0.385,0.566,0.576,0.85
			c0.209,0.307,0.421,0.613,0.625,0.924c0.188,0.288,0.366,0.58,0.549,0.87c0.198,0.313,0.399,0.623,0.591,0.939
			c0.176,0.29,0.343,0.585,0.515,0.876c0.189,0.322,0.382,0.64,0.565,0.964c0.163,0.29,0.318,0.585,0.478,0.877
			c0.181,0.332,0.365,0.66,0.539,0.994c0.154,0.294,0.297,0.591,0.446,0.886c0.17,0.338,0.344,0.675,0.509,1.014
			c0.14,0.29,0.27,0.584,0.407,0.875c0.163,0.351,0.331,0.702,0.487,1.055c0.127,0.286,0.246,0.576,0.367,0.864
			c0.155,0.362,0.312,0.724,0.461,1.089c0.118,0.291,0.227,0.586,0.342,0.88c0.143,0.365,0.288,0.73,0.423,1.097
			c0.108,0.294,0.208,0.59,0.312,0.885c0.131,0.371,0.265,0.742,0.39,1.114c0.097,0.291,0.186,0.584,0.278,0.876
			c0.122,0.382,0.246,0.762,0.36,1.145c0.086,0.288,0.163,0.576,0.245,0.865c0.111,0.391,0.224,0.781,0.328,1.175
			c0.075,0.285,0.143,0.571,0.214,0.858c0.1,0.399,0.202,0.797,0.294,1.199c0.065,0.284,0.123,0.569,0.184,0.853
			c0.087,0.405,0.177,0.81,0.257,1.216c0.055,0.284,0.103,0.569,0.156,0.854c0.075,0.409,0.152,0.82,0.22,1.23
			c0.047,0.281,0.085,0.565,0.127,0.848c0.063,0.417,0.127,0.832,0.182,1.248c0.037,0.281,0.066,0.563,0.1,0.845
			c0.049,0.419,0.101,0.838,0.143,1.259c0.028,0.284,0.048,0.569,0.073,0.854c0.036,0.419,0.074,0.838,0.102,1.257
			c0.02,0.286,0.031,0.575,0.047,0.861c0.022,0.419,0.047,0.838,0.061,1.258c0.01,0.286,0.012,0.574,0.018,0.86
			c0.009,0.42,0.02,0.84,0.021,1.262c0.001,0.29-0.006,0.58-0.009,0.87c-0.005,0.418-0.007,0.835-0.02,1.254
			c-0.009,0.294-0.025,0.589-0.038,0.882c-0.018,0.414-0.034,0.828-0.06,1.242c-0.018,0.297-0.044,0.593-0.066,0.891
			c-0.031,0.412-0.061,0.823-0.099,1.235c-0.028,0.299-0.064,0.597-0.097,0.896c-0.044,0.409-0.087,0.817-0.14,1.225
			c-0.039,0.306-0.086,0.611-0.129,0.915c-0.057,0.399-0.112,0.8-0.177,1.199c-0.05,0.313-0.108,0.627-0.163,0.94
			c-0.069,0.391-0.136,0.78-0.213,1.171c-0.061,0.317-0.131,0.634-0.198,0.951c-0.081,0.385-0.161,0.769-0.248,1.154
			c-0.074,0.322-0.155,0.641-0.233,0.963c-0.092,0.377-0.183,0.753-0.283,1.129c-0.087,0.329-0.182,0.656-0.274,0.985
			c-0.08,0.283-0.159,0.565-0.242,0.847c-16.505-5.158-28.4-20.628-28.4-38.628c-0.004-10.386,4.063-20.318,11.032-27.745
			c0.866,1.03,1.755,2.04,2.663,3.027C208.886,373.733,209.365,374.274,209.836,374.819z M352.934,138.17H229.975
			c-5.995-42.475-42.565-75.26-86.667-75.26c-48.274,0-87.547,39.274-87.547,87.547s39.273,87.547,87.547,87.547
			c44.103,0,80.673-32.785,86.667-75.26h122.959v47.09c-6.556,2.552-14.902,6.027-24.592,10.064
			c-34.253,14.268-85.996,35.814-127.302,45.398c-0.146,0.028-0.292,0.038-0.439,0.071c-10.381,2.393-19.563,3.904-27.419,4.518
			c-0.338,0.026-0.666,0.041-1,0.064c-0.938,0.065-1.871,0.127-2.769,0.165c-1.282,0.053-2.542,0.085-3.768,0.085
			c-0.152,0-0.303,0.002-0.371,0.005l-6.357,0.053c-1.036,0-2.094-0.012-3.165-0.036c-1.065-0.023-2.15-0.058-3.268-0.104
			l-0.322-0.012c-1.971-0.087-4.053-0.225-6.264-0.414l-0.241-0.018l-0.151-0.012c-1.918-0.171-3.939-0.392-6.032-0.665
			l-0.496-0.063c-1.92-0.257-3.902-0.563-5.923-0.917l-0.498-0.085c-1.907-0.339-3.865-0.731-5.828-1.162l-0.44-0.097
			c-1.945-0.435-3.896-0.915-5.801-1.424c-0.02-0.006-0.106-0.027-0.125-0.033l-0.203-0.054c-0.538-0.145-1.074-0.301-1.612-0.452
			c-1.411-0.398-2.819-0.81-4.206-1.248c-0.021-0.007-0.123-0.039-0.144-0.045c-1.461-0.462-2.903-0.955-4.339-1.458
			c-0.543-0.192-1.085-0.389-1.626-0.587c-0.836-0.305-1.665-0.62-2.492-0.939c-0.709-0.275-1.42-0.546-2.124-0.832
			c-0.308-0.125-0.611-0.258-0.918-0.385c-14.876-6.164-28.555-14.792-40.052-25.339c-0.106-0.097-0.217-0.182-0.324-0.274
			c-23.627-21.86-37.71-51.41-37.749-82.987v-0.301c0.063-50.541,36.079-95.877,89.66-112.827c0.039-0.012,0.079-0.025,0.118-0.036
			c1.89-0.596,3.843-1.166,5.889-1.718l0.247-0.068c1.912-0.511,3.861-0.99,5.842-1.433l0.403-0.089
			c1.949-0.43,3.91-0.821,5.829-1.164l0.517-0.088c1.999-0.35,3.98-0.656,5.9-0.912l0.509-0.065c2.074-0.269,4.1-0.492,6.118-0.67
			l0.361-0.029c2.137-0.183,4.221-0.321,6.223-0.409c0.055-0.001,0.221-0.006,0.276-0.009c2.22-0.095,4.389-0.143,6.512-0.143
			l6.209,0.05c0.113,0.004,0.342,0.007,0.455,0.007c41.947,0,117.536,31.488,162.699,50.3c9.691,4.037,18.036,7.512,24.592,10.069
			V138.17z M206.281,150.453c0,34.724-28.25,62.973-62.973,62.973s-62.973-28.249-62.973-62.973
			c0-34.724,28.25-62.973,62.973-62.973S206.281,115.729,206.281,150.453z M487.426,262.055
			c-24.268-2.047-47.565-10.151-68.002-23.739l-41.623-27.677V162.74h39.462c6.786,0,12.287-5.502,12.287-12.287
			c0-6.785-5.501-12.287-12.287-12.287h-39.462V90.268l41.623-27.676c20.436-13.589,43.733-21.693,68.002-23.741V262.055z"/>
	</g>
</g>
<g>
	<g>
		<path d="M415.545,441.665c-0.16-0.785-0.393-1.559-0.7-2.296c-0.307-0.738-0.688-1.451-1.13-2.126
			c-0.442-0.663-0.958-1.302-1.524-1.868c-0.577-0.565-1.204-1.083-1.868-1.524c-0.676-0.442-1.388-0.823-2.126-1.13
			c-0.737-0.307-1.511-0.541-2.298-0.7c-1.585-0.319-3.219-0.319-4.804,0c-0.786,0.16-1.56,0.393-2.298,0.7
			c-0.737,0.307-1.45,0.688-2.126,1.13c-0.664,0.441-1.302,0.958-1.868,1.524s-1.081,1.203-1.524,1.868
			c-0.442,0.676-0.823,1.388-1.13,2.126s-0.541,1.51-0.7,2.296c-0.16,0.788-0.246,1.599-0.246,2.396
			c0,0.811,0.086,1.611,0.246,2.408c0.16,0.788,0.393,1.549,0.7,2.298c0.307,0.738,0.688,1.45,1.13,2.113
			c0.455,0.677,0.958,1.304,1.524,1.869c0.577,0.577,1.204,1.081,1.868,1.536c0.676,0.442,1.388,0.823,2.126,1.13
			c0.737,0.307,1.511,0.541,2.298,0.7c0.799,0.16,1.597,0.232,2.396,0.232c0.811,0,1.61-0.074,2.408-0.232
			c0.786-0.16,1.56-0.393,2.298-0.7c0.737-0.307,1.45-0.688,2.126-1.13c0.664-0.455,1.29-0.958,1.868-1.536
			c0.565-0.565,1.081-1.192,1.524-1.869c0.442-0.664,0.823-1.375,1.13-2.113c0.307-0.748,0.541-1.51,0.7-2.298
			c0.16-0.797,0.246-1.597,0.246-2.408C415.791,443.263,415.705,442.451,415.545,441.665z"/>
	</g>
</g>
<g>
	<g>
		<path d="M467.273,148.058c-0.16-0.786-0.393-1.56-0.7-2.31c-0.307-0.737-0.688-1.45-1.13-2.113
			c-0.442-0.676-0.958-1.302-1.524-1.868c-0.565-0.566-1.192-1.082-1.868-1.536c-0.664-0.442-1.388-0.824-2.126-1.132
			c-0.737-0.307-1.511-0.539-2.298-0.699c-1.585-0.319-3.219-0.319-4.804,0c-0.774,0.16-1.548,0.392-2.298,0.699
			c-0.737,0.307-1.45,0.689-2.113,1.132c-0.676,0.453-1.302,0.969-1.868,1.536c-0.565,0.565-1.081,1.192-1.536,1.868
			c-0.442,0.663-0.823,1.376-1.13,2.113c-0.307,0.75-0.541,1.524-0.7,2.31c-0.16,0.788-0.233,1.599-0.233,2.396
			c0,0.799,0.074,1.611,0.233,2.396c0.16,0.785,0.393,1.559,0.7,2.298c0.307,0.75,0.688,1.461,1.13,2.124
			c0.455,0.677,0.971,1.304,1.536,1.869s1.192,1.081,1.868,1.524c0.664,0.441,1.376,0.823,2.113,1.13
			c0.75,0.307,1.524,0.539,2.298,0.699c0.799,0.161,1.61,0.246,2.408,0.246s1.61-0.085,2.396-0.246
			c0.786-0.16,1.56-0.392,2.298-0.699c0.737-0.307,1.462-0.689,2.126-1.13c0.676-0.442,1.302-0.958,1.868-1.524
			c0.565-0.565,1.081-1.192,1.524-1.869c0.442-0.664,0.823-1.375,1.13-2.124c0.307-0.738,0.541-1.511,0.7-2.298
			s0.246-1.597,0.246-2.396C467.519,149.657,467.433,148.845,467.273,148.058z"/>
	</g>
</g>
</svg>