<?xml version="1.0" encoding="iso-8859-1"?>
<!-- Uploaded to: SVG Repo, www.svgrepo.com, Generator: SVG Repo Mixer Tools -->
<svg fill="#000000" height="800px" width="800px" version="1.1" id="Layer_1" xmlns="http://www.w3.org/2000/svg" xmlns:xlink="http://www.w3.org/1999/xlink" 
	 viewBox="0 0 512 512" xml:space="preserve">
<g>
	<g>
		<path d="M491.964,1.59c-4.923-2.5-10.837-2.023-15.297,1.235c-56.652,41.391-90.473,107.989-90.473,178.151v122.702v151.421
			c0,31.374,25.525,56.899,56.899,56.899s56.899-25.525,56.899-56.899V303.679V14.67C499.992,9.147,496.889,4.092,491.964,1.59z
			 M443.092,482.659c-15.196,0-27.558-12.363-27.558-27.559V318.35h55.116v136.751h0.001
			C470.651,470.296,458.288,482.659,443.092,482.659z M470.651,289.009h-55.116V180.977c0-50.472,20.185-98.816,55.116-134.316
			V289.009z"/>
	</g>
</g>
<g>
	<g>
		<path d="M221.084,11.81c-0.191-0.939-0.469-1.863-0.836-2.743c-0.367-0.895-0.822-1.746-1.35-2.538
			c-0.528-0.807-1.144-1.555-1.819-2.23c-0.675-0.675-1.423-1.291-2.23-1.819c-0.792-0.528-1.658-0.983-2.538-1.35
			c-0.88-0.367-1.804-0.646-2.743-0.836c-1.893-0.381-3.844-0.381-5.736,0c-0.939,0.191-1.863,0.469-2.743,0.836
			c-0.88,0.367-1.731,0.822-2.523,1.35c-0.807,0.528-1.555,1.144-2.23,1.819c-0.69,0.675-1.291,1.423-1.834,2.23
			c-0.528,0.792-0.983,1.643-1.35,2.538c-0.367,0.88-0.646,1.805-0.836,2.743s-0.279,1.907-0.279,2.861
			c0,0.954,0.088,1.922,0.279,2.861s0.469,1.863,0.836,2.743c0.367,0.895,0.822,1.746,1.35,2.538
			c0.543,0.807,1.144,1.555,1.834,2.23c0.675,0.675,1.423,1.291,2.23,1.819c0.792,0.528,1.643,0.983,2.523,1.35
			s1.804,0.66,2.743,0.851c0.954,0.191,1.907,0.279,2.875,0.279c0.954,0,1.922-0.088,2.861-0.279
			c0.939-0.191,1.863-0.484,2.743-0.851c0.88-0.367,1.746-0.822,2.538-1.35c0.807-0.528,1.555-1.144,2.23-1.819
			c0.675-0.675,1.291-1.423,1.819-2.23c0.528-0.792,0.983-1.643,1.35-2.538c0.367-0.88,0.646-1.804,0.836-2.743
			c0.191-0.939,0.293-1.907,0.293-2.861C221.377,13.717,221.274,12.749,221.084,11.81z"/>
	</g>
</g>
<g>
	<g>
		<path d="M345.843,145.536v-40.458c0-1.174-0.153-2.311-0.414-3.405v-42.99h0.001c0-8.102-6.568-14.67-14.671-14.67
			c-8.102,0-14.67,6.568-14.67,14.67v31.725h-32.689V17.054c0-8.103-6.568-14.67-14.67-14.67c-8.103,0-14.67,6.568-14.67,14.67
			v73.352h-32.689V58.682c0-8.102-6.568-14.67-14.671-14.67c-8.102,0-14.67,6.568-14.67,14.67v46.395v14.854v25.604
			c0,37.389,26.825,68.617,62.235,75.486v69.454h-27.559c-8.102,0-14.67,6.568-14.67,14.67v149.954
			c0,31.374,25.525,56.899,56.899,56.899s56.899-25.525,56.899-56.899V305.146c0-8.102-6.568-14.67-14.67-14.67h-27.559v-69.454
			C319.018,214.151,345.843,182.925,345.843,145.536z M296.494,319.817v135.284h0.001c0,15.196-12.363,27.559-27.558,27.559
			c-15.196,0-27.559-12.363-27.559-27.559V319.817H296.494z M268.937,193.1c-26.228,0-47.565-21.337-47.565-47.565v-25.604v-0.183
			h45.154c0.722,0.109,1.454,0.183,2.205,0.183c0.751,0,1.485-0.075,2.205-0.183h45.567v25.788
			C316.503,171.764,295.165,193.1,268.937,193.1z"/>
	</g>
</g>
<g>
	<g>
		<path d="M341.132,4.298c-3.404-3.404-8.465-4.973-13.233-4.005c-0.939,0.176-1.863,0.469-2.743,0.836
			c-0.895,0.367-1.746,0.822-2.538,1.35c-0.807,0.528-1.555,1.144-2.23,1.819c-2.729,2.729-4.298,6.514-4.298,10.372
			c0,0.954,0.103,1.922,0.293,2.861c0.176,0.939,0.469,1.863,0.836,2.743c0.367,0.895,0.822,1.746,1.35,2.538
			c0.528,0.807,1.144,1.555,1.819,2.23c0.675,0.675,1.423,1.291,2.23,1.819c0.792,0.528,1.643,0.983,2.538,1.35
			c0.88,0.367,1.804,0.66,2.743,0.836c0.939,0.191,1.907,0.293,2.861,0.293c3.858,0,7.643-1.57,10.372-4.298
			c0.675-0.675,1.291-1.423,1.819-2.23c0.528-0.792,0.983-1.643,1.35-2.538c0.367-0.88,0.66-1.804,0.836-2.743
			c0.191-0.939,0.293-1.907,0.293-2.861C345.431,10.812,343.861,7.027,341.132,4.298z"/>
	</g>
</g>
<g>
	<g>
		<path d="M165.82,145.536v-68.63C165.82,34.501,131.321,0,88.913,0C46.508,0,12.007,34.501,12.007,76.906v68.63
			c0,37.389,26.825,68.615,62.235,75.486v69.454H46.685c-8.103,0-14.671,6.568-14.671,14.67v149.954
			c0,31.374,25.525,56.899,56.9,56.899c31.374,0,56.899-25.525,56.899-56.899V305.146c0-8.102-6.568-14.67-14.67-14.67h-27.56
			v-69.454C138.995,214.152,165.82,182.925,165.82,145.536z M116.473,319.817v135.284c0,15.196-12.363,27.559-27.558,27.559
			c-15.196,0-27.559-12.363-27.559-27.559V319.817H116.473z M88.914,193.1c-26.228,0-47.565-21.337-47.565-47.565v-68.63
			c-0.001-26.228,21.337-47.565,47.565-47.565s47.565,21.337,47.565,47.565v68.63C136.479,171.764,115.142,193.1,88.914,193.1z"/>
	</g>
</g>
</svg>