<?xml version="1.0" encoding="iso-8859-1"?>
<!-- Uploaded to: SVG Repo, www.svgrepo.com, Generator: SVG Repo Mixer Tools -->
<svg fill="#000000" height="800px" width="800px" version="1.1" id="Layer_1" xmlns="http://www.w3.org/2000/svg" xmlns:xlink="http://www.w3.org/1999/xlink" 
	 viewBox="0 0 512.001 512.001" xml:space="preserve">
<g>
	<g>
		<path d="M503.829,157.957h-41.396V136.17h41.396c2.728,0,5.276-1.362,6.792-3.63c1.516-2.268,1.8-5.143,0.757-7.664L461.813,5.047
			C460.549,1.992,457.57,0,454.264,0c-3.306,0-6.287,1.992-7.55,5.047l-49.566,119.829c-1.043,2.521-0.758,5.396,0.757,7.664
			c1.518,2.268,4.064,3.63,6.792,3.63h41.396v21.787h-47.158l-28.121-49.21c-10.409-18.219-35.002-32.492-55.987-32.492h-45.27
			c-4.513,0-8.17,3.658-8.17,8.17c0,4.512,3.657,8.17,8.17,8.17h45.27c15.145,0,34.288,11.109,41.801,24.259l23.488,41.103h-97.586
			l-46.796-81.89c-10.409-18.219-35.002-32.492-55.987-32.492H8.172c-4.513,0-8.17,3.658-8.17,8.17c0,4.512,3.657,8.17,8.17,8.17
			h171.574c15.145,0,34.288,11.109,41.801,24.259l42.162,73.783H73.533c-4.513,0-8.17,3.658-8.17,8.17c0,4.512,3.657,8.17,8.17,8.17
			H277.77c0.05,0,226.059,0,226.059,0c4.513,0,8.17-3.658,8.17-8.17C511.999,161.615,508.342,157.957,503.829,157.957z
			 M416.919,119.829l37.344-90.284l37.344,90.284H416.919z"/>
	</g>
</g>
<g>
	<g>
		<path d="M40.852,157.957H8.172c-4.513,0-8.17,3.658-8.17,8.17c0,4.512,3.657,8.17,8.17,8.17h32.681c4.513,0,8.17-3.658,8.17-8.17
			C49.023,161.615,45.366,157.957,40.852,157.957z"/>
	</g>
</g>
<g>
	<g>
		<path d="M416.681,190.637H8.172c-4.513,0-8.17,3.658-8.17,8.17c0,4.512,3.657,8.17,8.17,8.17h408.509
			c4.513,0,8.17-3.658,8.17-8.17C424.851,194.296,421.194,190.637,416.681,190.637z"/>
	</g>
</g>
<g>
	<g>
		<path d="M503.829,223.318H226.043c-4.513,0-8.17,3.658-8.17,8.17c0,4.512,3.657,8.17,8.17,8.17h277.786
			c4.513,0,8.17-3.658,8.17-8.17C511.999,226.976,508.341,223.318,503.829,223.318z"/>
	</g>
</g>
<g>
	<g>
		<path d="M193.362,223.318H95.32c-4.513,0-8.17,3.658-8.17,8.17c0,4.512,3.657,8.17,8.17,8.17h98.042c4.513,0,8.17-3.658,8.17-8.17
			C201.533,226.976,197.876,223.318,193.362,223.318z"/>
	</g>
</g>
<g>
	<g>
		<path d="M503.829,288.68H357.23c-4.513,0-8.17,3.658-8.17,8.17c0,4.512,3.657,8.17,8.17,8.17h146.599
			c4.513,0,8.17-3.658,8.17-8.17C511.999,292.338,508.341,288.68,503.829,288.68z"/>
	</g>
</g>
<g>
	<g>
		<path d="M134.986,354.041H8.172c-4.513,0-8.17,3.658-8.17,8.17c0,4.512,3.657,8.17,8.17,8.17h126.814
			c4.513,0,8.17-3.658,8.17-8.17C143.156,357.699,139.499,354.041,134.986,354.041z"/>
	</g>
</g>
<g>
	<g>
		<path d="M124.603,386.722h-51.07c-4.513,0-8.17,3.658-8.17,8.17c0,4.512,3.657,8.17,8.17,8.17h51.07c4.512,0,8.17-3.658,8.17-8.17
			C132.774,390.38,129.117,386.722,124.603,386.722z"/>
	</g>
</g>
<g>
	<g>
		<path d="M394.531,501.426l-63.677-206.952c-0.122-0.402-0.28-0.788-0.46-1.16c-0.026-0.056-0.052-0.111-0.08-0.167
			c-0.174-0.342-0.371-0.671-0.59-0.984c-0.039-0.056-0.081-0.108-0.122-0.162c-0.215-0.291-0.446-0.569-0.696-0.828
			c-0.023-0.024-0.044-0.049-0.066-0.073c-0.266-0.269-0.556-0.513-0.856-0.743c-0.06-0.046-0.119-0.09-0.18-0.134
			c-0.307-0.221-0.627-0.424-0.964-0.601c-0.037-0.02-0.076-0.036-0.114-0.054c-0.326-0.166-0.664-0.308-1.014-0.429
			c-0.045-0.015-0.087-0.034-0.133-0.048c-0.363-0.119-0.737-0.209-1.122-0.277c-0.075-0.013-0.151-0.024-0.227-0.035
			c-0.391-0.058-0.786-0.097-1.193-0.097H188.964c-0.406,0-0.803,0.039-1.193,0.097c-0.076,0.011-0.151,0.022-0.227,0.035
			c-0.383,0.068-0.758,0.158-1.122,0.277c-0.045,0.015-0.088,0.033-0.133,0.049c-0.35,0.121-0.687,0.265-1.013,0.429
			c-0.038,0.02-0.077,0.035-0.114,0.054c-0.337,0.178-0.657,0.38-0.964,0.601c-0.061,0.044-0.12,0.089-0.18,0.134
			c-0.302,0.23-0.59,0.474-0.856,0.743c-0.023,0.023-0.044,0.049-0.066,0.073c-0.251,0.259-0.482,0.537-0.696,0.828
			c-0.04,0.054-0.083,0.107-0.121,0.162c-0.22,0.313-0.416,0.642-0.59,0.984c-0.028,0.054-0.053,0.111-0.081,0.167
			c-0.18,0.373-0.338,0.758-0.46,1.16l-63.678,206.952c-1.328,4.313,1.093,8.885,5.405,10.212c4.313,1.325,8.885-1.093,10.212-5.406
			l10.962-35.63h223.903l10.962,35.628c1.081,3.513,4.313,5.769,7.805,5.769c0.795,0,1.606-0.117,2.406-0.363
			C393.438,510.31,395.859,505.738,394.531,501.426z M194.998,305.02h122.006l7.709,25.055H187.288L194.998,305.02z M182.26,346.416
			h147.48l7.709,25.055H174.551L182.26,346.416z M149.077,454.262l7.709-25.055h82.874c4.513,0,8.17-3.658,8.17-8.17
			c0-4.512-3.657-8.17-8.17-8.17h-77.847l7.709-25.055h172.955l7.709,25.055h-77.847c-4.513,0-8.17,3.658-8.17,8.17
			c0,4.512,3.657,8.17,8.17,8.17h82.874l7.709,25.055H149.077z"/>
	</g>
</g>
</svg>