<?xml version="1.0" ?><!DOCTYPE svg  PUBLIC '-//W3C//DTD SVG 1.1//EN'  'http://www.w3.org/Graphics/SVG/1.1/DTD/svg11.dtd'><!-- Uploaded to: SVG Repo, www.svgrepo.com, Generator: SVG Repo Mixer Tools -->
<svg fill="#000000" width="800px" height="800px" viewBox="0 0 32 32" style="fill-rule:evenodd;clip-rule:evenodd;stroke-linejoin:round;stroke-miterlimit:2;" version="1.1" xml:space="preserve" xmlns="http://www.w3.org/2000/svg" xmlns:serif="http://www.serif.com/" xmlns:xlink="http://www.w3.org/1999/xlink"><g id="Icon"/><path d="M26,3c0,-0.552 -0.448,-1 -1,-1l-18,-0c-0.552,-0 -1,0.448 -1,1l0,26c0,0.552 0.448,1 1,1l18,0c0.552,0 1,-0.448 1,-1l0,-26Zm-2,1l0,24c-0,-0 -16,-0 -16,-0c-0,-0 0,-24 0,-24l16,0Z"/><path d="M16,6.5c-2.208,0 -4,1.792 -4,4c0,2.208 1.792,4 4,4c2.208,0 4,-1.792 4,-4c0,-2.208 -1.792,-4 -4,-4Zm-0,1c1.656,0 3,1.344 3,3c0,1.656 -1.344,3 -3,3c-1.656,0 -3,-1.344 -3,-3c-0,-1.656 1.344,-3 3,-3Z"/><circle cx="10.486" cy="15.014" r="0.986"/><path d="M10.486,13.877c-0.627,0 -1.136,0.51 -1.136,1.137c0,0.627 0.509,1.136 1.136,1.136c0.627,0 1.137,-0.509 1.137,-1.136c-0,-0.627 -0.51,-1.137 -1.137,-1.137Zm0,0.3c0.462,0 0.837,0.375 0.837,0.837c-0,0.461 -0.375,0.836 -0.837,0.836c-0.461,-0 -0.836,-0.375 -0.836,-0.836c0,-0.462 0.375,-0.837 0.836,-0.837Z"/><circle cx="21.514" cy="15.014" r="0.986"/><path d="M21.514,13.877c-0.627,0 -1.137,0.51 -1.137,1.137c0,0.627 0.51,1.136 1.137,1.136c0.627,-0 1.136,-0.509 1.136,-1.136c0,-0.627 -0.509,-1.137 -1.136,-1.137Zm-0,0.3c0.461,0 0.836,0.375 0.836,0.837c-0,0.461 -0.375,0.836 -0.836,0.836c-0.462,-0 -0.837,-0.375 -0.837,-0.836c0,-0.462 0.375,-0.837 0.837,-0.837Z"/><path d="M16,16.117c-2.695,-0 -4.883,2.188 -4.883,4.883c-0,2.695 2.188,4.883 4.883,4.883c2.695,0 4.883,-2.188 4.883,-4.883c0,-2.695 -2.188,-4.883 -4.883,-4.883Zm0,1c2.143,-0 3.883,1.74 3.883,3.883c0,2.143 -1.74,3.883 -3.883,3.883c-2.143,0 -3.883,-1.74 -3.883,-3.883c-0,-2.143 1.74,-3.883 3.883,-3.883Z"/></svg>