<?xml version="1.0" encoding="iso-8859-1"?>
<!-- Uploaded to: SVG Repo, www.svgrepo.com, Generator: SVG Repo Mixer Tools -->
<!DOCTYPE svg PUBLIC "-//W3C//DTD SVG 1.1//EN" "http://www.w3.org/Graphics/SVG/1.1/DTD/svg11.dtd">
<svg fill="#000000" height="800px" width="800px" version="1.1" id="Capa_1" xmlns="http://www.w3.org/2000/svg" xmlns:xlink="http://www.w3.org/1999/xlink" 
	 viewBox="0 0 372 372" xml:space="preserve">
<g>
	<path d="M186,0C83.439,0,0,83.439,0,186c0,82.44,53.918,152.512,128.337,176.839c0.525,0.222,1.069,0.399,1.629,0.53
		C147.657,368.97,166.48,372,186,372c102.561,0,186-83.439,186-186S288.561,0,186,0z M351.149,202.862H247.51
		c-0.342-5.427-1.391-10.663-3.053-15.622l101.841-44.396C350.009,156.612,352,171.077,352,186
		C352,191.691,351.711,197.317,351.149,202.862z M235.072,169.513c-0.312-0.409-0.632-0.811-0.953-1.212l83.427-83.427
		c9.113,11.826,16.667,24.908,22.358,38.94L235.072,169.513z M304.379,69.755l-85.139,85.139c-2.047-1.317-4.169-2.526-6.372-3.598
		l45.12-114.86C275.342,44.823,291.017,56.15,304.379,69.755z M194.182,20.203c15.773,0.769,30.975,3.75,45.302,8.639
		l-45.302,115.323V20.203z M186,165.124c21.646,0,39.48,16.601,41.458,37.739h-82.917C146.52,181.724,164.354,165.124,186,165.124z
		 M118.557,34.332c17.205-7.681,35.946-12.516,55.625-13.907v125.847c-2.092,0.408-4.148,0.918-6.159,1.532L118.557,34.332z
		 M100.778,43.599l48.65,111.601L65.825,71.597C76.135,60.771,87.893,51.339,100.778,43.599z M20,186
		c0-12.455,1.389-24.59,4.002-36.268l102.75,40.054c-1.205,4.195-1.978,8.569-2.262,13.076H20.851C20.289,197.317,20,191.691,20,186
		z M29.575,130.439c5.601-15.721,13.5-30.361,23.305-43.503l83.419,83.419c-0.32,0.435-0.631,0.877-0.94,1.321L29.575,130.439z
		 M24.131,222.862h124.616c-3.889,6.729-6.853,14.928-6.751,24.25c0.195,17.854,11.277,34.469,32.938,49.383
		c9.261,6.377,14.104,12.501,13.285,16.802c-2.136,11.236-32.725,24.22-55.505,29.93C78.614,324.843,36.97,279.268,24.131,222.862z
		 M170.714,351.29c22.473-9.87,34.644-21.092,37.15-34.245c2.478-12.997-4.786-25.453-21.589-37.022
		c-15.944-10.979-24.113-22.093-24.279-33.033c-0.159-10.514,7.084-19.395,11.901-24.127h13.875
		c-0.643,4.487-0.684,9.724,0.491,15.56c3.905,19.411,19.596,37.463,46.635,53.656c8.927,5.346,19.449,13.587,18.884,22.488
		c-0.874,13.767-25.724,29.142-38.302,34.81C205.909,351.099,196.058,352,186,352C180.846,352,175.75,351.751,170.714,351.29z
		 M270.101,329.065c2.024-4.141,3.339-8.55,3.639-13.199c0.982-15.229-8.629-29.005-28.566-40.945
		c-21.42-12.828-34.284-26.646-37.201-39.959c-1.087-4.959-0.611-9.091,0.2-12.099h139.697
		C337.596,267.992,308.88,306.181,270.101,329.065z"/>
</g>
</svg>